<?xml version="1.0" encoding="UTF-8" standalone="no"?>
<!-- Created with Inkscape (http://www.inkscape.org/) -->

<svg
   width="256"
   height="256"
   viewBox="0 0 67.733332 67.733333"
   version="1.1"
   id="svg5"
   inkscape:version="1.2.2 (732a01da63, 2022-12-09)"
   sodipodi:docname="drawing.svg"
   xmlns:inkscape="http://www.inkscape.org/namespaces/inkscape"
   xmlns:sodipodi="http://sodipodi.sourceforge.net/DTD/sodipodi-0.dtd"
   xmlns="http://www.w3.org/2000/svg"
   xmlns:svg="http://www.w3.org/2000/svg">
  <sodipodi:namedview
     id="namedview7"
     pagecolor="#ffffff"
     bordercolor="#000000"
     borderopacity="0.25"
     inkscape:showpageshadow="2"
     inkscape:pageopacity="0.0"
     inkscape:pagecheckerboard="0"
     inkscape:deskcolor="#d1d1d1"
     inkscape:document-units="mm"
     showgrid="false"
     inkscape:zoom="3.3638608"
     inkscape:cx="101.37161"
     inkscape:cy="112.8168"
     inkscape:window-width="1920"
     inkscape:window-height="1111"
     inkscape:window-x="-9"
     inkscape:window-y="-9"
     inkscape:window-maximized="1"
     inkscape:current-layer="text344" />
  <defs
     id="defs2">
    <rect
       x="80.264914"
       y="115.34365"
       width="29.133191"
       height="103.45256"
       id="rect346" />
  </defs>
  <g
     inkscape:label="Layer 1"
     inkscape:groupmode="layer"
     id="layer1">
    <text
       xml:space="preserve"
       style="font-size:14.9764px;fill:#000000;stroke-width:1.24802"
       x="19.655691"
       y="26.709169"
       id="text120"
       transform="scale(0.9761403,1.0244429)"><tspan
         sodipodi:role="line"
         style="font-style:normal;font-variant:normal;font-weight:normal;font-stretch:normal;font-family:'Courier New';-inkscape-font-specification:'Courier New';stroke-width:1.24802"
         x="19.655691"
         y="26.709169"
         id="tspan122">0xBB</tspan></text>
    <path
       style="fill:#000000;stroke-width:0.720567"
       d="m 24.432605,29.781425 h 8.273804 l -4.069962,5.997839 z"
       id="path284"
       sodipodi:nodetypes="cccc" />
    <path
       style="fill:#000000;stroke-width:0.720567"
       d="m 28.667818,30.008904 -3.32023,17.190221 3.213128,4.069967 3.146185,-4.069961 z"
       id="path288"
       sodipodi:nodetypes="ccccc" />
    <g
       aria-label="y r
t o
e k
  e
  r
  s"
       transform="matrix(0.52769562,0,0,0.52769562,-8.3804985,-38.677876)"
       id="text344"
       style="line-height:1;font-family:'Cascadia Code';-inkscape-font-specification:'Cascadia Code';letter-spacing:-1.21px;white-space:pre;shape-inside:url(#rect346)">
      <path
         d="m 93.44644,136.60348 -3.120377,-6.24875 H 90.12604 q -0.240029,0 -0.344042,-0.096 -0.10401,-0.096 -0.10401,-0.24003 0,-0.10405 0.04801,-0.18403 0.05601,-0.0879 0.136018,-0.12003 0.08801,-0.04 0.264032,-0.04 h 1.840222 q 0.240029,0 0.344042,0.096 0.10401,0.096 0.10401,0.24803 0,0.14402 -0.10401,0.24003 -0.10401,0.096 -0.344042,0.096 h -0.904108 l 2.74433,5.51267 2.704327,-5.51267 H 95.60671 q -0.24003,0 -0.344041,-0.096 -0.10401,-0.096 -0.10401,-0.24803 0,-0.14402 0.10401,-0.24003 0.10401,-0.096 0.344041,-0.096 h 1.832222 q 0.248029,0 0.352042,0.096 0.10401,0.096 0.10401,0.24803 0,0.10405 -0.064,0.19201 -0.064,0.0879 -0.144018,0.12003 -0.08,0.024 -0.448054,0.024 l -4.256513,8.66505 h 1.048126 q 0.240029,0 0.344041,0.0881 0.10401,0.096 0.10401,0.24803 0,0.14402 -0.10401,0.24003 -0.10401,0.096 -0.344041,0.096 h -3.872468 q -0.240029,0 -0.344042,-0.096 -0.10401,-0.0881 -0.10401,-0.24003 0,-0.15202 0.10401,-0.24803 0.10401,-0.0881 0.344042,-0.0881 h 2.104254 z"
         style="font-family:'Courier New';-inkscape-font-specification:'Courier New';stroke-width:1.3655"
         id="path611" />
      <path
         d="m 108.96021,129.67464 v 1.69621 q 1.31216,-1.18414 1.96023,-1.52018 0.65608,-0.34404 1.20815,-0.34404 0.60007,0 1.11213,0.40804 0.52006,0.40005 0.52006,0.60809 0,0.15202 -0.10401,0.25603 -0.096,0.096 -0.24803,0.096 -0.08,0 -0.13602,-0.024 -0.056,-0.0319 -0.20802,-0.18402 -0.28003,-0.28003 -0.48806,-0.38404 -0.20802,-0.10405 -0.40805,-0.10405 -0.44005,0 -1.06412,0.35205 -0.61608,0.35204 -2.14426,1.7202 v 3.68044 h 2.97636 q 0.24803,0 0.35204,0.096 0.10401,0.0879 0.10401,0.24003 0,0.14402 -0.10401,0.24003 -0.10401,0.096 -0.35204,0.096 h -5.27264 q -0.24003,0 -0.34404,-0.0881 -0.10401,-0.096 -0.10401,-0.24003 0,-0.136 0.096,-0.22402 0.10401,-0.096 0.35204,-0.096 h 1.6242 v -5.60067 h -1.24015 q -0.24003,0 -0.34404,-0.096 -0.10401,-0.096 -0.10401,-0.24803 0,-0.14402 0.096,-0.24003 0.10401,-0.096 0.35204,-0.096 z"
         style="font-family:'Courier New';-inkscape-font-specification:'Courier New';stroke-width:1.3655"
         id="path613" />
      <path
         d="m 92.022269,146.03457 h 3.64844 q 0.240029,0 0.344042,0.096 0.10401,0.096 0.10401,0.24803 0,0.14402 -0.10401,0.24003 -0.10401,0.096 -0.344042,0.096 h -3.64844 v 4.47253 q 0,0.58408 0.464055,0.97613 0.472058,0.39205 1.376167,0.39205 0.680082,0 1.472178,-0.20003 0.792095,-0.20802 1.232149,-0.46405 0.160018,-0.10405 0.264031,-0.10405 0.128016,0 0.224028,0.10405 0.09601,0.096 0.09601,0.23202 0,0.12003 -0.10401,0.22403 -0.256031,0.26403 -1.24815,0.57607 -0.984119,0.30404 -1.888229,0.30404 -1.176142,0 -1.872226,-0.55207 -0.696083,-0.55207 -0.696083,-1.48819 v -4.47253 h -1.24015 q -0.24003,0 -0.344041,-0.096 -0.10401,-0.096 -0.10401,-0.24803 0,-0.14402 0.10401,-0.24003 0.10401,-0.096 0.344041,-0.096 h 1.24015 v -1.98425 q 0,-0.24002 0.09601,-0.34403 0.09601,-0.10405 0.24003,-0.10405 0.152018,0 0.248029,0.10405 0.09601,0.10405 0.09601,0.34403 z"
         style="font-family:'Courier New';-inkscape-font-specification:'Courier New';stroke-width:1.3655"
         id="path615" />
      <path
         d="m 113.52075,144.64345 q 0,1.53619 -1.10413,2.62431 -1.09613,1.08814 -2.64832,1.08814 -1.56818,0 -2.66432,-1.08814 -1.09613,-1.09612 -1.09613,-2.62431 0,-1.53618 1.09613,-2.62432 1.09614,-1.09613 2.66432,-1.09613 1.55219,0 2.64832,1.08813 1.10413,1.08814 1.10413,2.63232 z m -0.68008,0 q 0,-1.26416 -0.9041,-2.15227 -0.89611,-0.8881 -2.17627,-0.8881 -1.28015,0 -2.18426,0.89611 -0.89611,0.8881 -0.89611,2.14426 0,1.24815 0.89611,2.14426 0.90411,0.89611 2.18426,0.89611 1.28016,0 2.17627,-0.88811 0.9041,-0.89611 0.9041,-2.15226 z"
         style="font-family:'Courier New';-inkscape-font-specification:'Courier New';stroke-width:1.3655"
         id="path617" />
      <path
         d="m 97.344173,160.75479 h -6.848827 q 0.17602,1.30416 1.088131,2.10425 0.920111,0.7921 2.272274,0.7921 0.752092,0 1.57619,-0.24803 0.8241,-0.24803 1.344163,-0.65608 0.152018,-0.12003 0.264032,-0.12003 0.128016,0 0.224027,0.10405 0.09601,0.096 0.09601,0.23204 0,0.136 -0.128016,0.26402 -0.384046,0.40005 -1.368166,0.7521 -0.976117,0.34404 -2.008242,0.34404 -1.728209,0 -2.888349,-1.12814 -1.152139,-1.13613 -1.152139,-2.74433 0,-1.46417 1.080131,-2.5123 1.088132,-1.04813 2.688325,-1.04813 1.648198,0 2.712327,1.08014 1.064129,1.07212 1.048127,2.78433 z M 96.66409,160.0747 q -0.200023,-1.11213 -1.056128,-1.80822 -0.848101,-0.69607 -2.024243,-0.69607 -1.176143,0 -2.024245,0.68807 -0.848103,0.68809 -1.056128,1.81622 z"
         style="font-family:'Courier New';-inkscape-font-specification:'Courier New';stroke-width:1.3655"
         id="path619" />
      <path
         d="m 108.40014,159.35726 v 2.99236 h -1.57619 q -0.24003,0 -0.34404,-0.096 -0.10401,-0.096 -0.10401,-0.24003 0,-0.15202 0.10401,-0.24004 0.10401,-0.096 0.34404,-0.096 h 0.90411 v -8.68905 h -0.90411 q -0.24003,0 -0.34404,-0.096 -0.10401,-0.096 -0.10401,-0.24803 0,-0.14402 0.10401,-0.24003 0.10401,-0.096 0.34404,-0.096 h 1.57619 v 6.19276 l 2.85634,-2.40029 h -0.34404 q -0.24003,0 -0.34404,-0.096 -0.10401,-0.096 -0.10401,-0.24004 0,-0.15201 0.10401,-0.24803 0.10401,-0.096 0.34404,-0.096 h 2.15226 q 0.24803,0 0.35204,0.096 0.10401,0.096 0.10401,0.24803 0,0.14401 -0.10401,0.24004 -0.10401,0.096 -0.35204,0.096 h -0.77609 l -2.62432,2.19227 3.3204,3.3844 h 0.77609 q 0.24803,0 0.35204,0.096 0.10401,0.0881 0.10401,0.24004 0,0.14401 -0.10401,0.24003 -0.10401,0.096 -0.35204,0.096 h -2.17626 q -0.24003,0 -0.34404,-0.096 -0.10401,-0.096 -0.10401,-0.24003 0,-0.15202 0.10401,-0.24004 0.10401,-0.096 0.34404,-0.096 h 0.47206 l -2.88835,-2.96836 z"
         style="font-family:'Courier New';-inkscape-font-specification:'Courier New';stroke-width:1.3655"
         id="path621" />
      <path
         d="m 113.40074,170.39391 h -6.84882 q 0.17602,1.30416 1.08813,2.10426 0.92011,0.7921 2.27227,0.7921 0.75209,0 1.57619,-0.24803 0.8241,-0.24803 1.34416,-0.65608 0.15202,-0.12003 0.26404,-0.12003 0.12801,0 0.22402,0.10405 0.096,0.096 0.096,0.23203 0,0.136 -0.12802,0.26403 -0.38404,0.40005 -1.36816,0.75209 -0.97612,0.34405 -2.00824,0.34405 -1.72821,0 -2.88835,-1.12815 -1.15214,-1.13613 -1.15214,-2.74432 0,-1.46418 1.08013,-2.51231 1.08813,-1.04812 2.68833,-1.04812 1.6482,0 2.71232,1.08013 1.06413,1.07213 1.04813,2.78433 z m -0.68008,-0.68007 q -0.20002,-1.11215 -1.05613,-1.80822 -0.8481,-0.69609 -2.02424,-0.69609 -1.17614,0 -2.02425,0.68809 -0.8481,0.68808 -1.05612,1.81622 z"
         style="font-family:'Courier New';-inkscape-font-specification:'Courier New';stroke-width:1.3655"
         id="path623" />
      <path
         d="m 108.96021,177.64426 v 1.6962 q 1.31216,-1.18414 1.96023,-1.52018 0.65608,-0.34403 1.20815,-0.34403 0.60007,0 1.11213,0.40805 0.52006,0.40003 0.52006,0.60807 0,0.15202 -0.10401,0.25603 -0.096,0.096 -0.24803,0.096 -0.08,0 -0.13602,-0.024 -0.056,-0.0319 -0.20802,-0.18401 -0.28003,-0.28004 -0.48806,-0.38405 -0.20802,-0.10405 -0.40805,-0.10405 -0.44005,0 -1.06412,0.35205 -0.61608,0.35204 -2.14426,1.7202 v 3.68046 h 2.97636 q 0.24803,0 0.35204,0.096 0.10401,0.0881 0.10401,0.24003 0,0.14402 -0.10401,0.24002 -0.10401,0.096 -0.35204,0.096 h -5.27264 q -0.24003,0 -0.34404,-0.0879 -0.10401,-0.096 -0.10401,-0.24003 0,-0.136 0.096,-0.22402 0.10401,-0.096 0.35204,-0.096 h 1.6242 v -5.60068 h -1.24015 q -0.24003,0 -0.34404,-0.096 -0.10401,-0.096 -0.10401,-0.24803 0,-0.14402 0.096,-0.24003 0.10401,-0.096 0.35204,-0.096 z"
         style="font-family:'Courier New';-inkscape-font-specification:'Courier New';stroke-width:1.3655"
         id="path625" />
      <path
         d="m 111.98457,189.22225 q 0,-0.23204 0.096,-0.33605 0.096,-0.10405 0.24003,-0.10405 0.15202,0 0.24803,0.10405 0.096,0.10405 0.096,0.35204 v 1.15214 q 0,0.24004 -0.096,0.34405 -0.096,0.10405 -0.24803,0.10405 -0.13602,0 -0.23203,-0.0879 -0.088,-0.0881 -0.10401,-0.28804 -0.048,-0.48005 -0.49606,-0.7921 -0.65608,-0.44804 -1.73621,-0.44804 -1.12813,0 -1.75221,0.45605 -0.47206,0.34403 -0.47206,0.76809 0,0.48005 0.56007,0.8001 0.38405,0.22402 1.45618,0.34404 1.40017,0.15202 1.94423,0.34403 0.7761,0.28004 1.15214,0.7761 0.38405,0.49606 0.38405,1.07213 0,0.8561 -0.8241,1.52819 -0.8241,0.66408 -2.41629,0.66408 -1.5922,0 -2.60832,-0.8081 0,0.27203 -0.032,0.35204 -0.032,0.08 -0.12001,0.136 -0.08,0.056 -0.18402,0.056 -0.14402,0 -0.24003,-0.10405 -0.096,-0.10405 -0.096,-0.34405 v -1.38416 q 0,-0.24003 0.088,-0.34404 0.096,-0.10405 0.24803,-0.10405 0.14402,0 0.24003,0.10405 0.10401,0.096 0.10401,0.26403 0,0.36805 0.18402,0.61608 0.28003,0.38404 0.88811,0.64007 0.61607,0.24803 1.50418,0.24803 1.31216,0 1.95223,-0.48805 0.64008,-0.48806 0.64008,-1.03213 0,-0.62407 -0.64808,-1.00012 -0.65608,-0.37604 -1.91223,-0.50406 -1.24815,-0.12795 -1.79221,-0.33605 -0.54407,-0.20802 -0.84811,-0.62407 -0.30403,-0.41605 -0.30403,-0.89611 0,-0.8641 0.8481,-1.36816 0.8481,-0.51206 2.02424,-0.51206 1.39217,0 2.26428,0.68008 z"
         style="font-family:'Courier New';-inkscape-font-specification:'Courier New';stroke-width:1.3655"
         id="path627" />
    </g>
    <ellipse
       style="fill:#000000;stroke-width:0.720567"
       id="path402"
       cx="28.066534"
       cy="12.747911"
       rx="12.42409"
       ry="3.9628561" />
    <path
       style="fill:#000000;stroke-width:0.720567"
       d="m 20.703124,12.239169 c 0,0 0.26319,-9.1274636 3.106021,-9.050309 3.105243,0.084291 2.432922,1.9980067 4.423201,2.006762 1.913826,0.00848 1.681741,-2.1674189 4.466452,-2.1674189 2.784708,0 2.998918,8.9967559 2.998918,8.9967559 z"
       id="path404"
       sodipodi:nodetypes="cssscc" />
  </g>
</svg>
